<svg xmlns="http://www.w3.org/2000/svg" xmlns:xlink="http://www.w3.org/1999/xlink" version="1.1" x="0px" y="0px" viewBox="0 0 60 75" style="enable-background:new 0 0 60 60;" xml:space="preserve"><path d="M52.2,12.91l-2.9-1.24c-0.82-0.35-1.54-0.94-2.02-1.64c-0.34-0.58-2.15-3.46-4.25-3.46h-3.97c-1.78,0-3.41,1.02-4.19,2.6  c-0.02,0.03-0.05,0.05-0.07,0.09l-4.35,9.41c-0.68,1.47-2.17,2.42-3.79,2.42h-9.7c-1.45,0-2.81-0.43-3.87-1.2  c-0.22-0.16-0.44-0.34-0.64-0.54c-0.73-0.72-1.18-1.58-1.39-2.54c-0.03-0.12-0.07-0.22-0.09-0.34c-0.01-0.05,0-0.1-0.01-0.15  c-0.23-1.83,0.39-4.04,1.88-6.64c0.08-0.13,0.13-0.28,0.18-0.43c0.02-0.05,0.05-0.1,0.07-0.16c0.05-0.2,0.08-0.41,0.08-0.62  c0-0.01,0-0.02,0-0.02c0,0,0,0,0,0c0,0,0,0,0,0c0-0.65-0.27-1.27-0.72-1.73c-0.07-0.07-0.17-0.13-0.25-0.19  c-0.09-0.07-0.17-0.15-0.27-0.21c0,0,0,0,0,0c0,0,0,0,0,0c-0.03-0.02-0.07-0.03-0.1-0.04c-0.12-0.06-0.23-0.12-0.35-0.16  c-0.46-0.15-0.96-0.16-1.44-0.03C9.4,6.28,8.88,6.69,8.57,7.26c-0.1,0.17-0.21,0.38-0.32,0.6C8.2,7.94,8.16,8.02,8.12,8.1  C8.1,8.14,8.08,8.17,8.06,8.21c-1.64,3.3-4.22,10.57,1.27,15.82c0.45,0.43,0.95,0.85,1.51,1.25l-0.53,1.69  c-0.38,1.21-0.56,2.51-0.54,3.84c0.01,0.43,0,0.94-0.05,1.5c-0.19,2.25-0.94,5.41-3.44,8.09c-0.17,0.19-0.27,0.43-0.27,0.68v8.14  c0,2.63,2.15,4.76,4.79,4.76h0h3.84h0c0.55,0,1-0.45,1-1v-0.33c0.27,0.27,0.52,0.56,0.69,0.84c0.18,0.3,0.51,0.49,0.86,0.49h5.58  c0.31,0,0.59-0.14,0.78-0.38c0.19-0.24,0.26-0.55,0.19-0.85c-0.27-1.14-1.33-3.15-3.53-3.59v-4.39c1.24-0.65,4.19-2.38,6.66-5.37  c2.05,0.55,3.82,0.87,4.82,1.02v8.41c0,2.84,2.32,5.15,5.17,5.15h7.32c0.53,0,0.97-0.42,1-0.95c0.01-0.16,0.05-1.55-0.95-2.61  c-0.48-0.5-1.09-0.83-1.83-0.98V35.53c1.04-1.42,1.63-3.17,1.63-4.99v-8.53l3.88-0.65c1.18-0.21,2.19-0.58,3-1.12  c1.26-0.83,2.25-2.03,2.86-3.48C54.4,15.28,53.69,13.55,52.2,12.91z M13.65,49.38c-0.39-0.09-0.75-0.16-1.05-0.2v-4.61  c0.36-0.11,0.7-0.25,1.05-0.38V49.38z M18.81,43.26c-0.36,0.16-0.59,0.52-0.59,0.91v5.92c0,0.27,0.11,0.53,0.3,0.71  s0.46,0.28,0.72,0.29c0.93-0.02,1.56,0.42,1.95,0.91h-3.46c-0.55-0.73-1.3-1.4-2.08-1.86v-6.95c3.01-1.82,4.76-4.41,5.52-5.8  c1.11,0.52,2.32,1,3.6,1.41C22.03,41.8,18.85,43.24,18.81,43.26z M38.66,49.47V38.51c0.44-0.21,1.07-0.56,1.74-1.03v12.88  c0,0.14,0.03,0.27,0.08,0.39c-0.06-0.1-0.12-0.21-0.21-0.31C39.97,50.08,39.47,49.66,38.66,49.47z M42.77,51.81  c0.06,0.06,0.11,0.13,0.15,0.19H40.9c-0.04-0.36-0.14-0.75-0.34-1.13c0.18,0.28,0.48,0.49,0.84,0.49  C42.02,51.36,42.48,51.51,42.77,51.81z M51.93,15.98c-0.46,1.09-1.18,1.96-2.12,2.59c-0.58,0.38-1.33,0.66-2.23,0.82l-3.54,0.59  v-2.13c0-0.86-0.18-1.69-0.53-2.48l-0.35-0.78c-0.23-0.5-0.82-0.73-1.32-0.5c-0.5,0.23-0.73,0.82-0.5,1.32l0.35,0.78  c0.23,0.52,0.35,1.08,0.35,1.66v4.3c-1.18,0.57-2.55,0.83-3.13,0.32c-1.43-1.27-0.99-4.96-0.82-6.35c0.07-0.55-0.32-1.05-0.87-1.11  c-0.55-0.07-1.05,0.32-1.11,0.87c-0.37,3.03-0.47,6.36,1.48,8.09c0.63,0.56,1.42,0.78,2.26,0.78c0.72,0,1.48-0.18,2.19-0.44v6.23  c0,2.04-0.95,3.96-2.53,5.14c-1.13,0.84-2.18,1.25-2.19,1.25c-0.39,0.15-0.65,0.52-0.65,0.94v12.5c0,0.55,0.45,1,1,1  c0.52,0,0.87,0.11,1.06,0.34c0.07,0.09,0.12,0.19,0.15,0.3h-2c-1.75,0-3.17-1.41-3.17-3.15v-9.28c0-0.51-0.38-0.94-0.89-0.99  c-0.03,0-2.73-0.32-6.01-1.25c-0.02-0.01-0.03-0.01-0.05-0.01c-2.07-0.58-3.95-1.3-5.58-2.15c-0.25-0.13-0.54-0.15-0.8-0.05  c-0.26,0.1-0.47,0.3-0.58,0.56c-0.02,0.04-1.64,3.91-5.62,6.08c-0.89,0.48-1.84,0.84-2.83,1.09c-0.44,0.11-0.75,0.51-0.75,0.97v6.28  c0,0.54,0.44,0.99,0.98,1c0.01,0,0.98,0.03,2.07,0.36V52h-2.84c-1.54,0-2.79-1.24-2.79-2.76v-7.75c2.62-2.97,3.46-6.35,3.68-8.83  c0.06-0.71,0.08-1.34,0.07-1.87c-0.02-1.13,0.13-2.21,0.44-3.21l0.75-2.4c0.07-0.22,0.06-0.44-0.02-0.64  c-0.07-0.2-0.21-0.38-0.4-0.5c-0.92-0.59-1.67-1.23-2.28-1.9C6,17.41,8.75,11.02,10.31,8.24c0.08-0.14,0.2-0.2,0.27-0.22  C10.62,8.01,10.67,8,10.74,8c0.06,0,0.13,0.02,0.2,0.06c0,0,0.01,0.01,0.01,0.01c0.07,0.05,0.13,0.1,0.16,0.17  c0.04,0.06,0.06,0.14,0.06,0.21c0,0.01-0.01,0.02-0.01,0.03c0,0.07-0.02,0.14-0.06,0.21c-0.88,1.54-1.45,2.92-1.79,4.15  C9.3,12.89,9.28,12.95,9.26,13c-0.02,0.09-0.04,0.18-0.06,0.26c-0.87,3.68,0.37,6.06,1.84,7.51c0.5,0.49,1.07,0.91,1.68,1.25  c1.24,0.69,2.69,1.07,4.24,1.07h9.7c2.4,0,4.6-1.41,5.61-3.58l4.36-9.4c0.44-0.94,1.39-1.54,2.43-1.54h3.97  c0.63,0,1.83,1.31,2.57,2.54c0.74,1.07,1.75,1.9,2.92,2.4l2.9,1.24C51.89,14.95,52.12,15.52,51.93,15.98z"/><text x="0" y="75" fill="#000000" font-size="5px" font-weight="bold" font-family="'Helvetica Neue', Helvetica, Arial-Unicode, Arial, Sans-serif">Created by Vectorstall</text><text x="0" y="80" fill="#000000" font-size="5px" font-weight="bold" font-family="'Helvetica Neue', Helvetica, Arial-Unicode, Arial, Sans-serif">from the Noun Project</text></svg>