<svg xmlns="http://www.w3.org/2000/svg" xmlns:xlink="http://www.w3.org/1999/xlink" version="1.1" x="0px" y="0px" viewBox="0 0 100 125" enable-background="new 0 0 100 100" xml:space="preserve"><g><circle cx="88.302" cy="29.134" r="1.485"/><path d="M96.005,29.258c-0.6-1.305-3.326-6.731-8.072-9.193c-0.037-0.202-0.075-0.394-0.114-0.584   c-0.011-0.052-0.021-0.104-0.031-0.155c-0.078-0.375-0.158-0.733-0.242-1.069c-0.009-0.036-0.017-0.073-0.025-0.109   c-0.046-0.18-0.093-0.35-0.14-0.518c-0.013-0.047-0.024-0.092-0.038-0.137c-0.68-2.361-1.547-3.618-2.715-4.024   c-0.016-0.005-0.031-0.009-0.047-0.014c-0.107-0.034-0.217-0.065-0.33-0.086c-0.055-0.011-0.111-0.017-0.168-0.024   c-0.059-0.007-0.115-0.021-0.176-0.023c-0.027-0.003-0.055,0.003-0.084,0.002c-0.025-0.001-0.049-0.006-0.076-0.006   c-0.094,0-0.186,0.008-0.278,0.017c-0.01,0.003-0.019,0.001-0.028,0.003c-1.067,0.121-2.021,0.883-2.945,2.405   c-0.646,1.019-1.266,2.363-1.857,4.022c-0.908,0.377-1.818,0.866-2.713,1.465c-5.008,3.338-6.751,7-8.154,9.944   c-1.65,3.469-2.562,5.379-8.186,5.379c-0.854,0-1.814-0.05-2.854-0.146c-15.562-1.441-29.848-2.686-29.991-2.697l-0.195-0.007   c-0.758,0-7.549,0.158-12.713,5.695c-0.289,0.308-0.564,0.628-0.831,0.957c-1.233-2.087-2.844-6.505,0.338-12.542   c2.928-5.557,9.31-9.687,15.881-10.276c5.017-0.446,9.322,1.28,12.135,4.875c2.173,2.777,4.887,3.96,7.271,3.169   c1.946-0.648,3.234-2.556,3.283-4.859c0.037-1.782-0.715-7.928-11.938-12.192c-7.464-2.837-15.005-2.558-21.812,0.808   C11.034,12.858,5.06,19.741,2.938,26.869c-2.656,8.919-0.375,17.779,5.8,22.891c-0.677,3.207-0.882,6.845-0.608,10.901l-0.009,0.11   c-0.714,8.995-2.389,11.367-3.077,11.973l-0.788,0.547L10.617,94.5h12.328l0.153-1.307c0.047-0.444,0.393-4.314-1.682-6.615   c-0.883-0.979-2.078-1.485-3.463-1.531c-0.14-3.229-0.005-10.611,3.485-16.05c0.126-0.117,0.248-0.229,0.369-0.351   c3.031,1.533,10.656,4.784,20.876,4.784c4.73,0,9.445-0.712,14.039-2.11c0.791,2.455,2.146,7.51,1.277,11.272   c-1.467,6.354,2.206,11.208,2.363,11.417l0.494,0.49h12.406l0.425-0.836c0.171-0.404,1.617-3.916-0.03-6.398   c-0.544-0.82-1.607-1.75-3.643-1.938c-0.309-3.307-0.493-11.924,5.068-17.484l0.374-0.367c7.257-7.254,10.681-10.671,11.283-25.125   c2.987-0.681,9.771-2.66,11.151-6.82C98.359,34.123,98.398,31.906,96.005,29.258z M6.093,27.807   c1.534-5.154,6.312-11.954,13.524-15.521c5.96-2.949,12.597-3.185,19.184-0.683c7.326,2.785,9.867,6.615,9.817,9.048   c-0.02,0.909-0.416,1.601-1.034,1.808c-0.771,0.255-2.133-0.152-3.639-2.078c-3.527-4.503-8.86-6.679-15.021-6.123   c-7.637,0.687-15.07,5.517-18.498,12.021c-4.182,7.936-1.583,13.766,0.089,16.302c0.134,0.506,0.151,1.174-0.265,1.897   c-0.883,1.528-2.118-0.235-2.118-0.235l0.012,0.029C5.112,39.922,4.278,33.906,6.093,27.807z M94.77,34.496   c-0.71,2.146-6.022,3.979-9.636,4.739c-0.63,0.225-0.634,0.913-2.634,2.438c0,0.01,0,0.016,0,0.025   c0,13.599-2.74,16.347-9.855,23.458l-0.13,0.375c-8.167,8.166-5.791,21.212-5.691,21.764l0.329,1.47l1.52-0.13   c0.203-0.018,0.41-0.036,0.59-0.036c0.586,0,1.353,0.087,1.646,0.524c0.341,0.51,0.274,2.377,0.067,2.377h-8.396   c-0.764-2-2.229-4.461-1.37-8.172c1.224-5.313-1.036-12.195-1.737-14.131l1.763-6.617c0.019-0.395-0.071-1.294-1.228-1.634   c-1.271-0.375-1.863,0.683-2.016,1.017l-1.604,6.017c-4.48,1.433-9.083,2.168-13.703,2.168c-8.835,0-15.68-2.669-18.773-4.136   c1.615-2.5,2.539-5.205,3.019-6.967c0.011-0.384-0.043-1.719-1.299-2.07c-1.015-0.285-1.553,0.411-1.79,0.87   c-0.396,1.538-1.248,4.22-2.814,6.567l-0.14-0.085l-0.911,1.099c-6.713,8.102-5.242,21.112-5.176,21.662l0.221,1.836l1.8-0.439   c0.345-0.083,0.662-0.136,0.941-0.136c0.688,0,1.006,0.249,1.207,0.472c0.565,0.623,0.787,2.68,0.858,2.68h-6.755L7.975,74.396   c1.771-2.285,2.896-6.653,3.427-13.347l0.028-0.358l-0.009-0.128c-0.593-8.492,1.028-14.858,4.816-18.919   c4.14-4.439,9.501-4.645,10.285-4.65c1.09,0.095,14.905,1.301,29.905,2.689c1.14,0.106,2.201,0.158,3.156,0.158   c7.701,0,9.38-3.523,11.157-7.253c1.276-2.681,2.725-5.712,6.858-8.517l1.514,0.391c0.509-0.018,1.491-0.223,1.919-1.482   c0.038-0.114,0.082-0.117,0.131-0.207c0.038-0.123,0.073-0.273,0.113-0.273h0.005l0.261-0.859c0.951-2.777,1.689-4.087,2.103-4.64   c0.234,0.474,0.579,1.37,0.938,3.114c0.004,0.021,0.01,0.031,0.013,0.052c0.024,0.116,0.048,0.229,0.072,0.353   c0.027,0.15,0.058,0.303,0.085,0.464c0.013,0.063,0.023,0.13,0.035,0.196c0.07,0.408,0.142,0.853,0.213,1.333   c0.176,0.339,0.616,1.063,1.23,1.216l1.18-0.148c3.613,2.463,5.666,7.187,5.688,7.239l0.115,0.271l0.203,0.215   C94.601,32.559,95.055,33.632,94.77,34.496z"/></g><text x="0" y="115" fill="#000000" font-size="5px" font-weight="bold" font-family="'Helvetica Neue', Helvetica, Arial-Unicode, Arial, Sans-serif">Created by Iconic</text><text x="0" y="120" fill="#000000" font-size="5px" font-weight="bold" font-family="'Helvetica Neue', Helvetica, Arial-Unicode, Arial, Sans-serif">from the Noun Project</text></svg>