<svg xmlns="http://www.w3.org/2000/svg" viewBox="0 0 48 60" x="0px" y="0px"><title>Rabbit</title><g><path d="M39,26.81C34,18,25.66,19,19.41,19A7.83,7.83,0,0,0,20,15.37,13,13,0,0,0,29,2C28.86,1,27.91,1,27,1A13,13,0,0,0,15.15,8.65,8.07,8.07,0,0,0,12,8C4.68,8-7.31,18.23,6,22.9c0,4.42-.56,7.83,3,10.59v6.64A4,4,0,0,0,6,44v1a1,1,0,0,0,1,1H29.32a11.7,11.7,0,0,0,11.15-8.21,6,6,0,1,0-1.44-11ZM2,17c0-3,6.29-7,10-7a6.48,6.48,0,0,1,3.25.93s.05,0,.09.05A1.14,1.14,0,0,0,16,11a1.28,1.28,0,0,0,.52-.4s0-.07,0-.11,0-.06.05-.09A11,11,0,0,1,27,3a11,11,0,0,1-8.37,10.68l-.34.16a3.32,3.32,0,0,0-.26.28s-.13.32-.14.35,0,.36,0,.39A6,6,0,0,1,12,22C8.64,22,2,20.08,2,17ZM29.32,44H18.18A3,3,0,0,1,21,42h2a1,1,0,0,0,1-1V36a5,5,0,0,1,5-5,1,1,0,0,0,0-2,7,7,0,0,0-7,7v4a5.56,5.56,0,0,0-4,1V32a1,1,0,0,0-2,0V44H8a2,2,0,0,1,2-2,1,1,0,0,0,1-1V33a1.16,1.16,0,0,0-.45-.83C7.49,30.12,8,27.2,8,23.49c4,1,7.62.76,10.24-2.49,7,0,12.14-.83,16.86,3.9A13.2,13.2,0,0,1,39,34.32,9.69,9.69,0,0,1,29.32,44Zm11.57-8.18a14.82,14.82,0,0,0-1-7.22,4,4,0,1,1,1,7.22Z"/><path d="M11,15a1,1,0,0,0,0-2A1,1,0,0,0,11,15Z"/></g><text x="0" y="63" fill="#000000" font-size="5px" font-weight="bold" font-family="'Helvetica Neue', Helvetica, Arial-Unicode, Arial, Sans-serif">Created by tezar tantular</text><text x="0" y="68" fill="#000000" font-size="5px" font-weight="bold" font-family="'Helvetica Neue', Helvetica, Arial-Unicode, Arial, Sans-serif">from the Noun Project</text></svg>